<?xml version="1.0" encoding="utf-8"?>
<!-- Generator: Adobe Illustrator 16.0.0, SVG Export Plug-In . SVG Version: 6.00 Build 0)  -->
<!DOCTYPE svg PUBLIC "-//W3C//DTD SVG 1.1//EN" "http://www.w3.org/Graphics/SVG/1.1/DTD/svg11.dtd">
<svg version="1.1" id="Capa_1" xmlns="http://www.w3.org/2000/svg" xmlns:xlink="http://www.w3.org/1999/xlink" x="0px" y="0px"
	 width="545.048px" height="141.457px" viewBox="0 0 545.048 141.457" enable-background="new 0 0 545.048 141.457"
	 xml:space="preserve">
<g display="none">
	<path display="inline" fill="#020203" d="M0.913-26.147v-71.345h24.859c5.612,0,9.895,0.341,12.848,1.022
		c4.135,0.941,7.662,2.645,10.583,5.11c3.807,3.18,6.653,7.244,8.541,12.191c1.887,4.948,2.831,10.602,2.831,16.96
		c0,5.419-0.64,10.22-1.92,14.405c-1.28,4.186-2.921,7.648-4.923,10.39c-2.002,2.742-4.193,4.899-6.572,6.473
		c-2.38,1.574-5.251,2.767-8.615,3.577c-3.364,0.812-7.229,1.217-11.593,1.217H0.913z M10.462-34.566H25.87
		c4.758,0,8.492-0.438,11.199-1.314s4.865-2.108,6.473-3.698c2.265-2.239,4.028-5.248,5.292-9.028
		c1.263-3.778,1.895-8.361,1.895-13.748c0-7.461-1.239-13.196-3.716-17.203c-2.479-4.007-5.489-6.692-9.033-8.054
		c-2.56-0.974-6.679-1.46-12.356-1.46H10.462V-34.566z"/>
</g>
<g display="none">
	<path display="inline" fill="#020203" d="M70.098-87.418v-10.074h8.861v10.074H70.098z M70.098-26.147v-51.684h8.861v51.684H70.098
		z"/>
	<path display="inline" fill="#020203" d="M124.04-32.522c-3.282,2.758-6.441,4.704-9.476,5.84
		c-3.036,1.135-6.293,1.703-9.771,1.703c-5.743,0-10.157-1.387-13.242-4.161c-3.085-2.773-4.627-6.318-4.627-10.634
		c0-2.53,0.583-4.842,1.748-6.935c1.165-2.093,2.691-3.771,4.578-5.037c1.887-1.266,4.012-2.222,6.375-2.871
		c1.739-0.454,4.364-0.892,7.876-1.314c7.154-0.843,12.421-1.849,15.802-3.017c0.032-1.2,0.049-1.963,0.049-2.288
		c0-3.568-0.837-6.083-2.511-7.543c-2.264-1.979-5.628-2.968-10.091-2.968c-4.168,0-7.245,0.722-9.23,2.166
		c-1.986,1.444-3.454,3.999-4.406,7.665l-8.664-1.168c0.788-3.666,2.083-6.626,3.889-8.882c1.805-2.254,4.414-3.991,7.827-5.207
		c3.413-1.217,7.367-1.825,11.863-1.825c4.463,0,8.089,0.52,10.879,1.557c2.789,1.039,4.84,2.345,6.153,3.918
		c1.312,1.574,2.231,3.561,2.756,5.961c0.295,1.492,0.443,4.186,0.443,8.078v11.681c0,8.144,0.188,13.294,0.566,15.451
		c0.377,2.158,1.124,4.227,2.24,6.205h-9.254C124.893-27.964,124.303-30.09,124.04-32.522z M123.302-52.087
		c-3.217,1.299-8.041,2.401-14.473,3.31c-3.643,0.52-6.219,1.104-7.729,1.752c-1.51,0.649-2.675,1.599-3.495,2.847
		c-0.82,1.25-1.23,2.637-1.23,4.161c0,2.336,0.894,4.283,2.683,5.84c1.789,1.558,4.406,2.336,7.852,2.336
		c3.413,0,6.448-0.737,9.106-2.214c2.658-1.476,4.61-3.496,5.858-6.059c0.951-1.979,1.427-4.899,1.427-8.761V-52.087z"/>
	<path display="inline" fill="#020203" d="M143.376-26.147v-51.684h7.975v7.835c2.034-3.666,3.913-6.083,5.636-7.251
		s3.618-1.752,5.686-1.752c2.986,0,6.022,0.941,9.107,2.823l-3.052,8.127c-2.166-1.266-4.332-1.898-6.498-1.898
		c-1.937,0-3.676,0.577-5.218,1.728c-1.543,1.152-2.642,2.75-3.298,4.793c-0.985,3.115-1.477,6.521-1.477,10.22v27.059H143.376z"/>
	<path display="inline" fill="#020203" d="M174.576-87.418v-10.074h8.861v10.074H174.576z M174.576-26.147v-51.684h8.861v51.684
		H174.576z"/>
	<path display="inline" fill="#020203" d="M191.106-51.989c0-9.57,2.691-16.66,8.073-21.267c4.496-3.828,9.976-5.743,16.442-5.743
		c7.187,0,13.061,2.329,17.623,6.983c4.561,4.656,6.842,11.088,6.842,19.296c0,6.651-1.009,11.884-3.027,15.695
		c-2.019,3.813-4.956,6.773-8.812,8.882c-3.856,2.108-8.065,3.163-12.626,3.163c-7.319,0-13.234-2.319-17.746-6.959
		C193.363-36.578,191.106-43.262,191.106-51.989z M200.213-51.989c0,6.618,1.46,11.575,4.381,14.867
		c2.92,3.294,6.596,4.94,11.027,4.94c4.397,0,8.056-1.655,10.978-4.965c2.92-3.309,4.381-8.354,4.381-15.135
		c0-6.392-1.469-11.233-4.406-14.527c-2.938-3.292-6.588-4.939-10.953-4.939c-4.431,0-8.106,1.639-11.027,4.916
		C201.673-63.555,200.213-58.607,200.213-51.989z"/>
	<path display="inline" fill="#020203" d="M274.282-26.147v-71.345h9.549v62.926h35.543v8.419H274.282z"/>
	<path display="inline" fill="#020203" d="M361.206-32.522c-3.282,2.758-6.441,4.704-9.477,5.84
		c-3.036,1.135-6.293,1.703-9.771,1.703c-5.743,0-10.157-1.387-13.241-4.161c-3.086-2.773-4.628-6.318-4.628-10.634
		c0-2.53,0.582-4.842,1.748-6.935c1.164-2.093,2.69-3.771,4.578-5.037c1.887-1.266,4.012-2.222,6.374-2.871
		c1.739-0.454,4.364-0.892,7.877-1.314c7.153-0.843,12.421-1.849,15.802-3.017c0.032-1.2,0.049-1.963,0.049-2.288
		c0-3.568-0.837-6.083-2.511-7.543c-2.265-1.979-5.629-2.968-10.091-2.968c-4.169,0-7.245,0.722-9.23,2.166
		c-1.986,1.444-3.454,3.999-4.405,7.665l-8.664-1.168c0.787-3.666,2.083-6.626,3.889-8.882c1.805-2.254,4.413-3.991,7.827-5.207
		c3.413-1.217,7.367-1.825,11.863-1.825c4.463,0,8.09,0.52,10.879,1.557c2.789,1.039,4.841,2.345,6.153,3.918
		c1.313,1.574,2.231,3.561,2.757,5.961c0.296,1.492,0.443,4.186,0.443,8.078v11.681c0,8.144,0.188,13.294,0.565,15.451
		c0.377,2.158,1.124,4.227,2.24,6.205h-9.255C362.059-27.964,361.468-30.09,361.206-32.522z M360.468-52.087
		c-3.217,1.299-8.041,2.401-14.473,3.31c-3.644,0.52-6.22,1.104-7.729,1.752c-1.51,0.649-2.676,1.599-3.495,2.847
		c-0.821,1.25-1.231,2.637-1.231,4.161c0,2.336,0.895,4.283,2.684,5.84c1.788,1.558,4.405,2.336,7.852,2.336
		c3.412,0,6.448-0.737,9.106-2.214c2.658-1.476,4.61-3.496,5.858-6.059c0.951-1.979,1.428-4.899,1.428-8.761V-52.087z"/>
</g>
<g display="none">
</g>
<path fill="#B11062" d="M473.507,4.983c36.667,0,66.5,29.493,66.5,65.747c0,36.253-29.833,65.741-66.5,65.741
	c-36.669,0-66.501-29.488-66.501-65.741C407.006,34.477,436.838,4.983,473.507,4.983 M473.507,0
	c-39.513,0-71.542,31.668-71.542,70.73c0,39.058,32.029,70.727,71.542,70.727c39.51,0,71.541-31.669,71.541-70.727
	C545.048,31.668,513.017,0,473.507,0"/>
<path fill="#B01062" d="M428.044,69.348c0-14.379,0.02-28.757-0.031-43.134c-0.007-1.447,0.265-1.919,1.86-1.91
	c14.37,0.072,28.741,0.04,43.112,0.04c2.301,0,2.301,0.002,1.605,2.121c-8.918,27.135-17.835,54.269-26.747,81.404
	c-0.641,1.951-1.29,3.896-1.897,5.859c-0.228,0.749-0.571,1.086-1.443,1.076c-5.077-0.047-10.158-0.07-15.236,0.008
	c-1.424,0.02-1.224-0.796-1.224-1.648C428.046,98.561,428.044,83.951,428.044,69.348"/>
<path fill="#020203" d="M493.335,76.835c9.574,12.6,19.087,25.119,28.627,37.674c-3.038,0.72-23.025,0.377-23.788-0.383
	l-24.325-33.931c-1.043-2.434-2.996-1.688-4.681-1.751c-1.247-0.047-0.733,0.955-0.735,1.492
	c-0.032,9.816-0.022,19.633-0.022,29.448c0,1.427-0.03,2.855,0.012,4.28c0.024,0.748-0.11,1.142-1.014,1.135
	c-5.303-0.034-10.605-0.017-16.14-0.017c1.154-3.498,2.253-6.832,3.357-10.164c4.332-13.093,8.685-26.182,12.971-39.291
	c0.385-1.185,0.91-1.547,2.159-1.541c4.728,0.029,9.466,0.213,14.179-0.41c8.229-1.091,12.305-4.465,11.077-14.644
	c-0.591-4.858-3.06-7.212-7.896-8.296c-3.171-0.709-6.399-0.872-9.626-0.926c-1.136-0.018-1.219-0.356-0.897-1.295
	c1.432-4.207,2.827-8.428,4.207-12.654c0.231-0.705,0.442-1.195,1.374-1.164c6.424,0.213,12.78,0.781,18.825,3.172
	c9.886,3.912,14.312,11.506,14.879,21.668c0.183,3.262-0.055,6.502-0.819,9.687c-2.307,9.594-9.078,14.537-18.178,17.057
	c-0.555,0.151-1.119,0.272-1.679,0.408C494.645,76.523,494.085,76.655,493.335,76.835"/>
<g>
	<path d="M0,34.149h25.095c5.659,0,9.973,0.434,12.942,1.299c3.989,1.176,7.406,3.263,10.251,6.263
		c2.845,2.999,5.01,6.672,6.494,11.017s2.227,9.702,2.227,16.073c0,5.597-0.696,10.421-2.087,14.473
		c-1.701,4.947-4.128,8.952-7.283,12.014c-2.382,2.319-5.598,4.129-9.648,5.428c-3.031,0.958-7.082,1.438-12.153,1.438H0V34.149z
		 M13.73,45.653v45.042h10.251c3.834,0,6.602-0.217,8.303-0.65c2.227-0.557,4.074-1.499,5.543-2.829
		c1.469-1.329,2.667-3.518,3.595-6.563s1.392-7.197,1.392-12.455c0-5.257-0.464-9.293-1.392-12.107
		c-0.928-2.813-2.227-5.01-3.896-6.586c-1.67-1.578-3.789-2.645-6.355-3.201c-1.918-0.433-5.675-0.649-11.272-0.649H13.73z"/>
	<path d="M68.56,46.21V34.149h13.035V46.21H68.56z M68.56,102.152V52.89h13.035v49.263H68.56z"/>
	<path d="M104.695,67.919l-11.829-2.134c1.329-4.762,3.618-8.287,6.865-10.576c3.247-2.288,8.071-3.433,14.473-3.433
		c5.813,0,10.143,0.688,12.988,2.064c2.845,1.376,4.848,3.124,6.007,5.241c1.16,2.119,1.74,6.008,1.74,11.666l-0.14,15.215
		c0,4.33,0.209,7.523,0.626,9.579c0.418,2.058,1.198,4.261,2.343,6.61h-12.896c-0.341-0.865-0.758-2.149-1.252-3.85
		c-0.217-0.773-0.371-1.283-0.464-1.531c-2.227,2.165-4.608,3.788-7.144,4.871c-2.536,1.082-5.242,1.623-8.118,1.623
		c-5.072,0-9.068-1.376-11.991-4.129c-2.922-2.752-4.383-6.23-4.383-10.437c0-2.783,0.665-5.265,1.995-7.445
		c1.329-2.18,3.193-3.85,5.59-5.01c2.396-1.159,5.852-2.172,10.367-3.038c6.092-1.144,10.313-2.211,12.664-3.201v-1.299
		c0-2.504-0.619-4.29-1.855-5.357c-1.237-1.066-3.572-1.6-7.004-1.6c-2.319,0-4.128,0.456-5.427,1.368
		S105.499,65.631,104.695,67.919z M122.136,78.495c-1.67,0.557-4.314,1.222-7.932,1.995c-3.618,0.772-5.984,1.53-7.097,2.272
		c-1.701,1.206-2.551,2.737-2.551,4.593c0,1.824,0.68,3.401,2.041,4.73c1.36,1.33,3.092,1.995,5.195,1.995
		c2.35,0,4.592-0.772,6.726-2.319c1.577-1.175,2.613-2.613,3.108-4.314c0.34-1.113,0.51-3.23,0.51-6.354V78.495z"/>
	<path d="M160.267,102.152h-13.035V52.89h12.107v7.005c2.071-3.31,3.935-5.489,5.59-6.541c1.653-1.051,3.532-1.577,5.636-1.577
		c2.969,0,5.829,0.819,8.581,2.458L175.11,65.6c-2.196-1.422-4.237-2.134-6.123-2.134c-1.825,0-3.371,0.503-4.639,1.508
		c-1.269,1.005-2.266,2.822-2.992,5.45c-0.727,2.629-1.09,8.134-1.09,16.514V102.152z"/>
	<path d="M184.758,46.21V34.149h13.035V46.21H184.758z M184.758,102.152V52.89h13.035v49.263H184.758z"/>
	<path d="M208.137,76.825c0-4.329,1.067-8.52,3.2-12.571c2.135-4.051,5.156-7.143,9.069-9.277c3.911-2.133,8.28-3.2,13.104-3.2
		c7.452,0,13.56,2.42,18.322,7.26c4.762,4.84,7.144,10.955,7.144,18.346c0,7.453-2.405,13.631-7.213,18.531
		c-4.81,4.902-10.862,7.353-18.161,7.353c-4.515,0-8.821-1.021-12.918-3.062c-4.099-2.041-7.213-5.033-9.348-8.976
		C209.204,87.285,208.137,82.484,208.137,76.825z M221.496,77.521c0,4.886,1.159,8.627,3.479,11.225
		c2.318,2.598,5.179,3.896,8.581,3.896c3.401,0,6.254-1.299,8.559-3.896c2.303-2.598,3.456-6.37,3.456-11.318
		c0-4.824-1.153-8.535-3.456-11.133c-2.305-2.598-5.157-3.896-8.559-3.896c-3.402,0-6.263,1.299-8.581,3.896
		C222.655,68.893,221.496,72.635,221.496,77.521z"/>
	<path d="M296.04,102.152V34.706h13.73v55.989h34.141v11.457H296.04z"/>
	<path d="M363.348,67.919l-11.829-2.134c1.329-4.762,3.618-8.287,6.865-10.576c3.247-2.288,8.071-3.433,14.473-3.433
		c5.813,0,10.143,0.688,12.988,2.064c2.845,1.376,4.848,3.124,6.007,5.241c1.16,2.119,1.74,6.008,1.74,11.666l-0.14,15.215
		c0,4.33,0.209,7.523,0.626,9.579c0.418,2.058,1.198,4.261,2.343,6.61h-12.896c-0.341-0.865-0.758-2.149-1.252-3.85
		c-0.217-0.773-0.371-1.283-0.465-1.531c-2.227,2.165-4.607,3.788-7.143,4.871c-2.536,1.082-5.242,1.623-8.118,1.623
		c-5.072,0-9.068-1.376-11.991-4.129c-2.922-2.752-4.383-6.23-4.383-10.437c0-2.783,0.664-5.265,1.994-7.445
		c1.329-2.18,3.192-3.85,5.59-5.01c2.396-1.159,5.852-2.172,10.367-3.038c6.092-1.144,10.313-2.211,12.664-3.201v-1.299
		c0-2.504-0.619-4.29-1.855-5.357c-1.237-1.066-3.572-1.6-7.005-1.6c-2.319,0-4.128,0.456-5.427,1.368
		S364.151,65.631,363.348,67.919z M380.789,78.495c-1.67,0.557-4.314,1.222-7.933,1.995c-3.618,0.772-5.983,1.53-7.097,2.272
		c-1.701,1.206-2.552,2.737-2.552,4.593c0,1.824,0.68,3.401,2.041,4.73c1.36,1.33,3.092,1.995,5.195,1.995
		c2.35,0,4.593-0.772,6.726-2.319c1.578-1.175,2.613-2.613,3.108-4.314c0.34-1.113,0.511-3.23,0.511-6.354V78.495z"/>
</g>
<g>
</g>
<g>
</g>
<g>
</g>
<g>
</g>
<g>
</g>
<g>
</g>
</svg>
